<mxfile host="app.diagrams.net" modified="2024-05-07T21:13:37.108Z" agent="Mozilla/5.0 (Windows NT 10.0; Win64; x64) AppleWebKit/537.36 (KHTML, like Gecko) Chrome/124.0.0.0 Safari/537.36" etag="Ov2GO7qSQV96nNWTUXAH" version="24.3.1" type="github">
  <diagram name="Página-1" id="kwLtOtwFoIAKwN4g_zOw">
    <mxGraphModel dx="1120" dy="1595" grid="1" gridSize="10" guides="1" tooltips="1" connect="1" arrows="1" fold="1" page="1" pageScale="1" pageWidth="827" pageHeight="1169" math="0" shadow="0">
      <root>
        <mxCell id="0" />
        <mxCell id="1" parent="0" />
        <mxCell id="CIaDpzLTPKFZsKQMV0aU-1" value="Gerente" style="shape=umlActor;html=1;verticalLabelPosition=bottom;verticalAlign=top;align=center;" vertex="1" parent="1">
          <mxGeometry x="100" y="590" width="30" height="60" as="geometry" />
        </mxCell>
        <mxCell id="CIaDpzLTPKFZsKQMV0aU-2" value="Cliente" style="shape=umlActor;html=1;verticalLabelPosition=bottom;verticalAlign=top;align=center;" vertex="1" parent="1">
          <mxGeometry x="710" y="600" width="30" height="60" as="geometry" />
        </mxCell>
        <mxCell id="CIaDpzLTPKFZsKQMV0aU-3" value="Vendedor" style="shape=umlActor;html=1;verticalLabelPosition=bottom;verticalAlign=top;align=center;" vertex="1" parent="1">
          <mxGeometry x="700" y="900" width="30" height="60" as="geometry" />
        </mxCell>
        <mxCell id="CIaDpzLTPKFZsKQMV0aU-5" value="adicionar livros" style="ellipse;whiteSpace=wrap;html=1;" vertex="1" parent="1">
          <mxGeometry x="320" y="50" width="140" height="70" as="geometry" />
        </mxCell>
        <mxCell id="CIaDpzLTPKFZsKQMV0aU-6" value="atualizar livros" style="ellipse;whiteSpace=wrap;html=1;" vertex="1" parent="1">
          <mxGeometry x="320" y="180" width="140" height="70" as="geometry" />
        </mxCell>
        <mxCell id="CIaDpzLTPKFZsKQMV0aU-7" value="Remover livros" style="ellipse;whiteSpace=wrap;html=1;" vertex="1" parent="1">
          <mxGeometry x="320" y="320" width="140" height="70" as="geometry" />
        </mxCell>
        <mxCell id="CIaDpzLTPKFZsKQMV0aU-10" value="registrar Vendas" style="ellipse;whiteSpace=wrap;html=1;" vertex="1" parent="1">
          <mxGeometry x="320" y="450" width="140" height="70" as="geometry" />
        </mxCell>
        <mxCell id="CIaDpzLTPKFZsKQMV0aU-11" value="Cancelar vendas" style="ellipse;whiteSpace=wrap;html=1;" vertex="1" parent="1">
          <mxGeometry x="320" y="590" width="140" height="70" as="geometry" />
        </mxCell>
        <mxCell id="CIaDpzLTPKFZsKQMV0aU-14" value="Consultar vendas" style="ellipse;whiteSpace=wrap;html=1;" vertex="1" parent="1">
          <mxGeometry x="320" y="720" width="140" height="70" as="geometry" />
        </mxCell>
        <mxCell id="CIaDpzLTPKFZsKQMV0aU-15" value="Cadastrar Clientes" style="ellipse;whiteSpace=wrap;html=1;" vertex="1" parent="1">
          <mxGeometry x="320" y="850" width="140" height="70" as="geometry" />
        </mxCell>
        <mxCell id="CIaDpzLTPKFZsKQMV0aU-16" value="Atualizar informações dos clientes" style="ellipse;whiteSpace=wrap;html=1;" vertex="1" parent="1">
          <mxGeometry x="320" y="960" width="140" height="70" as="geometry" />
        </mxCell>
        <mxCell id="CIaDpzLTPKFZsKQMV0aU-17" value="Consultar histórico&lt;div&gt;de&lt;/div&gt;&lt;div&gt;Compras&lt;/div&gt;" style="ellipse;whiteSpace=wrap;html=1;" vertex="1" parent="1">
          <mxGeometry x="320" y="1080" width="140" height="70" as="geometry" />
        </mxCell>
        <mxCell id="CIaDpzLTPKFZsKQMV0aU-23" value="" style="edgeStyle=none;html=1;endArrow=block;endFill=0;endSize=12;verticalAlign=bottom;rounded=0;entryX=0;entryY=0.5;entryDx=0;entryDy=0;exitX=0.5;exitY=0;exitDx=0;exitDy=0;exitPerimeter=0;" edge="1" parent="1" source="CIaDpzLTPKFZsKQMV0aU-1" target="CIaDpzLTPKFZsKQMV0aU-7">
          <mxGeometry width="160" relative="1" as="geometry">
            <mxPoint x="150" y="590" as="sourcePoint" />
            <mxPoint x="310" y="590" as="targetPoint" />
          </mxGeometry>
        </mxCell>
        <mxCell id="CIaDpzLTPKFZsKQMV0aU-24" value="" style="edgeStyle=none;html=1;endArrow=block;endFill=0;endSize=12;verticalAlign=bottom;rounded=0;entryX=0;entryY=0.5;entryDx=0;entryDy=0;exitX=0.75;exitY=0.1;exitDx=0;exitDy=0;exitPerimeter=0;" edge="1" parent="1" source="CIaDpzLTPKFZsKQMV0aU-1" target="CIaDpzLTPKFZsKQMV0aU-10">
          <mxGeometry width="160" relative="1" as="geometry">
            <mxPoint x="120" y="599" as="sourcePoint" />
            <mxPoint x="280" y="599" as="targetPoint" />
            <Array as="points">
              <mxPoint x="150" y="580" />
            </Array>
          </mxGeometry>
        </mxCell>
        <mxCell id="CIaDpzLTPKFZsKQMV0aU-26" value="" style="edgeStyle=none;html=1;endArrow=block;endFill=0;endSize=12;verticalAlign=bottom;rounded=0;entryX=0.207;entryY=0.129;entryDx=0;entryDy=0;entryPerimeter=0;" edge="1" parent="1" target="CIaDpzLTPKFZsKQMV0aU-11">
          <mxGeometry width="160" relative="1" as="geometry">
            <mxPoint x="120" y="600" as="sourcePoint" />
            <mxPoint x="280" y="600" as="targetPoint" />
          </mxGeometry>
        </mxCell>
        <mxCell id="CIaDpzLTPKFZsKQMV0aU-27" value="" style="edgeStyle=none;html=1;endArrow=block;endFill=0;endSize=12;verticalAlign=bottom;rounded=0;entryX=1;entryY=0.5;entryDx=0;entryDy=0;exitX=0.5;exitY=0;exitDx=0;exitDy=0;exitPerimeter=0;" edge="1" parent="1" source="CIaDpzLTPKFZsKQMV0aU-3" target="CIaDpzLTPKFZsKQMV0aU-10">
          <mxGeometry width="160" relative="1" as="geometry">
            <mxPoint x="540" y="830" as="sourcePoint" />
            <mxPoint x="700" y="830" as="targetPoint" />
          </mxGeometry>
        </mxCell>
        <mxCell id="CIaDpzLTPKFZsKQMV0aU-28" value="" style="edgeStyle=none;html=1;endArrow=block;endFill=0;endSize=12;verticalAlign=bottom;rounded=0;exitX=0.5;exitY=0;exitDx=0;exitDy=0;exitPerimeter=0;entryX=0;entryY=0.5;entryDx=0;entryDy=0;" edge="1" parent="1" source="CIaDpzLTPKFZsKQMV0aU-1" target="CIaDpzLTPKFZsKQMV0aU-6">
          <mxGeometry width="160" relative="1" as="geometry">
            <mxPoint x="110" y="580" as="sourcePoint" />
            <mxPoint x="140" y="400" as="targetPoint" />
          </mxGeometry>
        </mxCell>
        <mxCell id="CIaDpzLTPKFZsKQMV0aU-29" value="" style="edgeStyle=none;html=1;endArrow=block;endFill=0;endSize=12;verticalAlign=bottom;rounded=0;exitX=0.5;exitY=0;exitDx=0;exitDy=0;exitPerimeter=0;entryX=-0.014;entryY=0.343;entryDx=0;entryDy=0;entryPerimeter=0;" edge="1" parent="1" source="CIaDpzLTPKFZsKQMV0aU-1" target="CIaDpzLTPKFZsKQMV0aU-5">
          <mxGeometry width="160" relative="1" as="geometry">
            <mxPoint x="60" y="360" as="sourcePoint" />
            <mxPoint x="220" y="360" as="targetPoint" />
          </mxGeometry>
        </mxCell>
        <mxCell id="CIaDpzLTPKFZsKQMV0aU-30" value="" style="edgeStyle=none;html=1;endArrow=block;endFill=0;endSize=12;verticalAlign=bottom;rounded=0;entryX=1;entryY=0.5;entryDx=0;entryDy=0;exitX=0.25;exitY=0.1;exitDx=0;exitDy=0;exitPerimeter=0;" edge="1" parent="1" source="CIaDpzLTPKFZsKQMV0aU-3" target="CIaDpzLTPKFZsKQMV0aU-11">
          <mxGeometry width="160" relative="1" as="geometry">
            <mxPoint x="450" y="700" as="sourcePoint" />
            <mxPoint x="610" y="700" as="targetPoint" />
          </mxGeometry>
        </mxCell>
        <mxCell id="CIaDpzLTPKFZsKQMV0aU-31" value="" style="edgeStyle=none;html=1;endArrow=block;endFill=0;endSize=12;verticalAlign=bottom;rounded=0;entryX=1;entryY=0.5;entryDx=0;entryDy=0;exitX=0;exitY=0.3333333333333333;exitDx=0;exitDy=0;exitPerimeter=0;" edge="1" parent="1" source="CIaDpzLTPKFZsKQMV0aU-3" target="CIaDpzLTPKFZsKQMV0aU-14">
          <mxGeometry width="160" relative="1" as="geometry">
            <mxPoint x="450" y="870" as="sourcePoint" />
            <mxPoint x="610" y="870" as="targetPoint" />
          </mxGeometry>
        </mxCell>
        <mxCell id="CIaDpzLTPKFZsKQMV0aU-32" value="" style="edgeStyle=none;html=1;endArrow=block;endFill=0;endSize=12;verticalAlign=bottom;rounded=0;entryX=1;entryY=0.5;entryDx=0;entryDy=0;exitX=0.5;exitY=0.5;exitDx=0;exitDy=0;exitPerimeter=0;" edge="1" parent="1" source="CIaDpzLTPKFZsKQMV0aU-3" target="CIaDpzLTPKFZsKQMV0aU-15">
          <mxGeometry width="160" relative="1" as="geometry">
            <mxPoint x="570" y="980" as="sourcePoint" />
            <mxPoint x="730" y="980" as="targetPoint" />
          </mxGeometry>
        </mxCell>
        <mxCell id="CIaDpzLTPKFZsKQMV0aU-33" value="" style="edgeStyle=none;html=1;endArrow=block;endFill=0;endSize=12;verticalAlign=bottom;rounded=0;exitX=0.233;exitY=0.983;exitDx=0;exitDy=0;exitPerimeter=0;" edge="1" parent="1" source="CIaDpzLTPKFZsKQMV0aU-3" target="CIaDpzLTPKFZsKQMV0aU-17">
          <mxGeometry width="160" relative="1" as="geometry">
            <mxPoint x="540" y="1040" as="sourcePoint" />
            <mxPoint x="700" y="1040" as="targetPoint" />
          </mxGeometry>
        </mxCell>
        <mxCell id="CIaDpzLTPKFZsKQMV0aU-34" value="Consulta livros" style="ellipse;whiteSpace=wrap;html=1;" vertex="1" parent="1">
          <mxGeometry x="320" y="-60" width="140" height="70" as="geometry" />
        </mxCell>
        <mxCell id="CIaDpzLTPKFZsKQMV0aU-35" value="" style="edgeStyle=none;html=1;endArrow=block;endFill=0;endSize=12;verticalAlign=bottom;rounded=0;entryX=1;entryY=1;entryDx=0;entryDy=0;" edge="1" parent="1" target="CIaDpzLTPKFZsKQMV0aU-34">
          <mxGeometry width="160" relative="1" as="geometry">
            <mxPoint x="720" y="600" as="sourcePoint" />
            <mxPoint x="880" y="600" as="targetPoint" />
          </mxGeometry>
        </mxCell>
        <mxCell id="CIaDpzLTPKFZsKQMV0aU-36" value="" style="edgeStyle=none;html=1;endArrow=block;endFill=0;endSize=12;verticalAlign=bottom;rounded=0;exitX=0;exitY=1;exitDx=0;exitDy=0;exitPerimeter=0;" edge="1" parent="1" source="CIaDpzLTPKFZsKQMV0aU-2">
          <mxGeometry width="160" relative="1" as="geometry">
            <mxPoint x="650" y="710" as="sourcePoint" />
            <mxPoint x="430" y="1090" as="targetPoint" />
          </mxGeometry>
        </mxCell>
        <mxCell id="CIaDpzLTPKFZsKQMV0aU-37" value="" style="edgeStyle=none;html=1;endArrow=block;endFill=0;endSize=12;verticalAlign=bottom;rounded=0;entryX=0.457;entryY=0.029;entryDx=0;entryDy=0;entryPerimeter=0;" edge="1" parent="1" target="CIaDpzLTPKFZsKQMV0aU-14">
          <mxGeometry width="160" relative="1" as="geometry">
            <mxPoint x="130" y="610" as="sourcePoint" />
            <mxPoint x="340" y="690" as="targetPoint" />
          </mxGeometry>
        </mxCell>
        <mxCell id="CIaDpzLTPKFZsKQMV0aU-38" value="" style="edgeStyle=none;html=1;endArrow=block;endFill=0;endSize=12;verticalAlign=bottom;rounded=0;exitX=0.5;exitY=0.5;exitDx=0;exitDy=0;exitPerimeter=0;" edge="1" parent="1" source="CIaDpzLTPKFZsKQMV0aU-1" target="CIaDpzLTPKFZsKQMV0aU-15">
          <mxGeometry width="160" relative="1" as="geometry">
            <mxPoint x="150" y="710" as="sourcePoint" />
            <mxPoint x="310" y="710" as="targetPoint" />
          </mxGeometry>
        </mxCell>
        <mxCell id="CIaDpzLTPKFZsKQMV0aU-39" value="" style="edgeStyle=none;html=1;endArrow=block;endFill=0;endSize=12;verticalAlign=bottom;rounded=0;exitX=1;exitY=1;exitDx=0;exitDy=0;exitPerimeter=0;" edge="1" parent="1" source="CIaDpzLTPKFZsKQMV0aU-1" target="CIaDpzLTPKFZsKQMV0aU-16">
          <mxGeometry width="160" relative="1" as="geometry">
            <mxPoint x="120" y="730" as="sourcePoint" />
            <mxPoint x="280" y="730" as="targetPoint" />
          </mxGeometry>
        </mxCell>
        <mxCell id="CIaDpzLTPKFZsKQMV0aU-40" value="" style="edgeStyle=none;html=1;endArrow=block;endFill=0;endSize=12;verticalAlign=bottom;rounded=0;exitX=0;exitY=1;exitDx=0;exitDy=0;exitPerimeter=0;entryX=0.071;entryY=0.143;entryDx=0;entryDy=0;entryPerimeter=0;" edge="1" parent="1" source="CIaDpzLTPKFZsKQMV0aU-1" target="CIaDpzLTPKFZsKQMV0aU-17">
          <mxGeometry width="160" relative="1" as="geometry">
            <mxPoint x="70" y="720" as="sourcePoint" />
            <mxPoint x="230" y="720" as="targetPoint" />
          </mxGeometry>
        </mxCell>
      </root>
    </mxGraphModel>
  </diagram>
</mxfile>
